<svg xmlns="http://www.w3.org/2000/svg" viewBox="0 0 784 784"><path d="M0 0h784v784H0z" fill="url(#a)" vectorEffect="non-scaling-stroke" /><path d="M769.441 0H14.027A14.527 14.527 0 00-.5 14.527v573.52l66.128-34.474a14.527 14.527 0 0113.002 0l46.646 23.316 50.99-76.5a14.542 14.542 0 0125.09 1.57l45.106 90.228 45.107-90.229a14.513 14.513 0 0110.692-7.83 14.484 14.484 0 0112.624 4.097l42.492 42.492 49.93-124.818a14.513 14.513 0 0123.767-4.881l42.536 42.536 49.915-124.818c.378-.93.857-1.83 1.41-2.673l58.122-87.163a13.234 13.234 0 011.816-2.208l33.282-33.311h-23.04a14.527 14.527 0 110-29.055h58.109a14.57 14.57 0 0114.527 14.528v58.108a14.527 14.527 0 11-29.054 0v-23.04l-32.294 32.294-56.497 84.708-57.527 143.863a14.513 14.513 0 01-23.767 4.881l-42.535-42.535-49.93 124.817a14.513 14.513 0 01-23.767 4.881 3665.27 3665.27 0 01-43.741-44.104l-49.218 98.436c-2.426 4.925-7.453 8.034-12.959 8.034s-10.532-3.11-13.002-8.034l-46.908-93.831-44.22 66.331a14.527 14.527 0 01-18.58 4.94l-51.616-25.801L-.5 617.696v152.245a14.527 14.527 0 0014.527 14.527h755.414a14.527 14.527 0 0014.527-14.527V14.527A14.527 14.527 0 00769.441 0z" fill="#2788dc" /></svg>